Coordinates
version=1
nRows=15
nColumns=19
inDegrees=yes

Units are S.I. units (second, meters, Newtons, ...)
Angles are in degrees.

endheader
time	pelvis_tilt	pelvis_list	pelvis_rotation	pelvis_tx	pelvis_ty	pelvis_tz	hip_flexion_r	hip_adduction_r	hip_rotation_r	knee_angle_r	ankle_angle_r	subtalar_angle_r	hip_flexion_l	hip_adduction_l	hip_rotation_l	knee_angle_l	ankle_angle_l	subtalar_angle_l
      1.88333333	      6.12473094	      3.79289835	      3.43928669	      0.58813706	      1.00868370	     -0.00677702	     17.62029098	     -6.31444306	     -2.87535542	     -5.57402528	     -1.20478218	     -0.00000183	    -24.39599172	      4.24325012	      7.11954578	     -6.97247286	     11.95924633	      0.00000185
      1.90000000	      5.90321549	      3.60862487	      3.75205725	      0.59141333	      1.00824307	     -0.00476943	     18.31295245	     -5.98196111	     -2.92323500	     -8.71963902	     -2.24629749	     -0.00000199	    -24.32826549	      3.76911468	      7.48180128	     -9.14373144	     11.62599006	      0.00000224
      1.91666667	      6.02603819	      3.45138874	      4.09958651	      0.59472320	      1.00899725	     -0.00287846	     18.67927782	     -5.73414017	     -3.01249172	    -12.14807333	     -2.84080306	     -0.00000211	    -24.28122240	      3.32580702	      7.91464595	    -11.86693293	     10.92489245	      0.00000282
      1.93333333	      6.14934621	      3.33069497	      4.26860915	      0.59905563	      1.01026479	     -0.00097217	     18.86495585	     -5.50830638	     -2.83368299	    -15.42091419	     -2.93381721	     -0.00000230	    -23.85146953	      3.06279169	      8.16544194	    -15.30153882	      9.79058838	      0.00000348
      1.95000000	      6.54808731	      3.10487708	      4.64034206	      0.60297095	      1.01231395	      0.00082528	     18.39844342	     -5.20706902	     -2.86033695	    -18.09065427	     -2.80854723	     -0.00000261	    -22.94952453	      2.67369294	      8.40897190	    -19.98910962	      8.31930093	      0.00000458
      1.96666667	      6.69303385	      3.27990355	      4.93862609	      0.60573724	      1.01402420	      0.00279925	     18.04994969	     -5.31043226	     -2.80600497	    -20.43461274	     -2.36446307	     -0.00000242	    -20.95685487	      2.79783131	      8.38938102	    -25.89333830	      6.06053897	      0.00000597
      1.98333333	      6.86803935	      3.09840914	      5.13092409	      0.60847230	      1.01578501	      0.00513269	     17.32386708	     -4.98439646	     -2.93653175	    -22.08203595	     -1.70095297	     -0.00000221	    -18.40609012	      2.53009163	      7.67949812	    -32.42362795	      2.77466353	      0.00000751
      2.00000000	      6.95585847	      2.91517168	      5.14096072	      0.61038735	      1.01731561	      0.00770379	     16.60474728	     -4.58054070	     -3.00958219	    -23.47430242	     -0.66794722	     -0.00000186	    -15.33381493	      2.16849076	      6.41326236	    -39.06292381	     -1.58414763	      0.00000837
      2.01666667	      6.91743161	      2.35229918	      4.98365819	      0.61126336	      1.01864977	      0.01088351	     15.75873862	     -3.69837363	     -3.12680082	    -24.12305696	      0.37868145	     -0.00000168	    -11.81844088	      1.20189073	      4.64610784	    -45.49915552	     -6.29264188	      0.00000851
      2.03333333	      6.90876429	      1.68997679	      5.15611183	      0.61238656	      1.02067287	      0.01406686	     14.49438935	     -2.72520910	     -3.58821963	    -24.13045284	      1.48552147	     -0.00000149	     -8.43576474	     -0.19388898	      3.19086531	    -51.09684345	    -10.43747029	      0.00000760
      2.05000000	      7.02684557	      1.08445669	      4.98495929	      0.61243270	      1.02326474	      0.01748645	     12.95593128	     -1.71301133	     -3.72443086	    -23.62092767	      2.39048843	     -0.00000141	     -5.30825728	     -1.49335454	      1.77020735	    -55.96853077	    -12.81632039	      0.00000575
      2.06666667	      7.28360861	      0.64749472	      4.95245102	      0.61232069	      1.02641464	      0.02077698	     11.20171695	     -0.87576426	     -3.82912225	    -23.01994445	      3.29757793	     -0.00000147	     -2.39289870	     -2.55843927	      0.90789129	    -60.27293225	    -12.99751385	      0.00000386
      2.08333333	      7.38640926	      0.51317227	      4.67455938	      0.61172756	      1.02986360	      0.02353888	      9.43305388	     -0.39919904	     -3.64957944	    -21.98597958	      3.93460892	     -0.00000131	      0.46501155	     -3.08364943	      0.09076168	    -63.69928055	    -11.47442456	      0.00000216
      2.10000000	      7.49587948	      0.47603336	      4.43372557	      0.61158080	      1.03363769	      0.02627521	      7.44735923	     -0.03656748	     -3.47884976	    -20.59938396	      4.37261500	     -0.00000108	      3.10244750	     -3.31544830	     -0.36108294	    -66.18850476	     -9.15319353	      0.00000072
      2.11666667	      7.81089179	      0.54346667	      3.97615063	      0.61085163	      1.03771970	      0.02927370	      5.05339495	      0.23788799	     -3.08515212	    -18.69871989	      4.49578501	     -0.00000095	      5.33098195	     -3.38965828	     -0.94351083	    -67.69680594	     -6.99841665	      0.00000013
